<?xml version="1.0" encoding="utf-8"?>
<!-- Generator: Adobe Illustrator 16.0.0, SVG Export Plug-In . SVG Version: 6.00 Build 0)  -->
<!DOCTYPE svg PUBLIC "-//W3C//DTD SVG 1.1//EN" "http://www.w3.org/Graphics/SVG/1.1/DTD/svg11.dtd">
<svg version="1.1" id="Layer_1" xmlns="http://www.w3.org/2000/svg" xmlns:xlink="http://www.w3.org/1999/xlink" x="0px" y="0px"
	 width="100px" height="106.234px" viewBox="0 0 100 106.234" enable-background="new 0 0 100 106.234" xml:space="preserve">
<polygon fill="#9E62C9" points="50.02,0.335 0.84,17.928 8.473,82.797 50.02,105.902 91.778,82.797 99.2,17.954 99.2,17.928 "/>
<polygon fill="#7c549e" points="50.02,0.335 50.02,105.902 91.778,82.797 99.2,17.954 99.2,17.928 "/>
<g>
	<defs>
		<rect id="SVGID_1_" x="0.84" y="0.332" width="98.36" height="105.57"/>
	</defs>
	<clipPath id="SVGID_2_">
		<use xlink:href="#SVGID_1_"  overflow="visible"/>
	</clipPath>
	<path clip-path="url(#SVGID_2_)" fill="#FFFFFF" d="M61.895,60.155c-1.487,2.545-2.971,4.451-4.455,6.148
		c-1.905,2.12-3.814,3.39-6.361,4.451c-2.753,1.27-5.084,1.909-9.113,1.909c-4.027,0-7.421-1.272-9.54-2.549
		c-2.118-1.27-4.024-2.753-5.511-4.87c-1.062-1.483-1.909-2.756-2.543-4.239c-0.211-0.851-0.849-2.335-0.849-2.546
		c-0.425-1.694-0.847-2.756-0.847-6.785V30.053h5.727v21.622c0.209,1.483,0.635,4.454,0.844,5.723
		c0.212,0.848,0.212,1.062,0.638,2.123c0.424,1.059,0.846,1.906,1.693,2.754c1.062,1.272,2.122,2.331,3.605,3.178
		c1.484,0.851,3.818,1.909,6.784,1.909c4.873,0,8.266-2.331,11.235-4.873c1.27-1.272,2.759-3.818,4.025-6.149
		c0.214-0.636,0.851-1.905,0.851-1.905h8.905l-6.574-17.596L49.811,57.188h-5.722V29.842h5.722v14.836l7.629-14.836h6.36
		l15.477,41.974h-6.149l-4.454-11.872L61.895,60.155z"/>
</g>
</svg>
